<?xml version="1.0" standalone="no"?>
<!DOCTYPE svg PUBLIC "-//W3C//DTD SVG 20010904//EN"
 "http://www.w3.org/TR/2001/REC-SVG-20010904/DTD/svg10.dtd">
<svg version="1.0" xmlns="http://www.w3.org/2000/svg"
 width="2000.000000pt" height="2000.000000pt" viewBox="0 0 2000.000000 2000.000000"
 preserveAspectRatio="xMidYMid meet">

<g transform="translate(0.000000,2000.000000) scale(0.100000,-0.100000)"
fill="#000000" stroke="none">
<path d="M10380 14450 l0 -60 85 0 85 0 0 60 0 60 -85 0 -85 0 0 -60z"/>
<path d="M10837 14460 c-167 -26 -317 -166 -362 -335 -57 -221 46 -445 250
-541 168 -80 377 -49 510 77 161 152 199 365 100 559 -89 174 -291 272 -498
240z m210 -223 c76 -40 132 -137 133 -228 0 -167 -126 -284 -287 -265 -139 16
-223 115 -223 262 0 172 127 279 302 252 25 -3 59 -13 75 -21z"/>
<path d="M8280 14430 c0 -19 -7 -20 -100 -20 -93 0 -100 -1 -100 -20 0 -19 7
-20 100 -20 l100 0 0 -375 0 -375 -280 0 c-242 0 -280 -2 -280 -15 0 -13 38
-15 280 -15 242 0 280 -2 280 -15 0 -13 38 -15 285 -15 l286 0 -3 96 -3 97
-175 3 -175 3 -3 75 -3 76 161 0 160 0 0 95 0 95 -67 2 c-38 1 -108 2 -158 2
l-90 1 -3 73 -3 72 176 0 175 0 0 60 0 60 55 0 55 0 0 -405 0 -405 105 0 105
0 0 146 0 145 47 -3 47 -3 81 -140 80 -140 113 -3 c106 -3 124 2 103 24 -14
14 -171 285 -171 295 0 4 12 15 28 24 41 25 95 98 116 157 46 132 -31 298
-167 359 -49 22 -66 24 -269 27 -215 3 -218 3 -218 -17 0 -19 -6 -21 -55 -21
-48 0 -55 2 -55 20 0 20 -7 20 -280 20 -273 0 -280 0 -280 -20z m1082 -191
c57 -30 61 -134 8 -181 -28 -26 -36 -28 -120 -28 l-90 0 0 113 0 113 93 -4
c50 -2 100 -8 109 -13z"/>
<path d="M9730 14005 l0 -445 105 0 105 0 0 146 0 145 47 -3 46 -3 81 -142 81
-142 113 -1 114 0 -20 33 c-57 92 -162 278 -162 285 0 4 17 21 38 37 53 41 84
81 104 139 22 63 22 103 3 171 -19 65 -62 125 -117 165 -71 51 -119 60 -340
60 l-198 0 0 -445z m417 230 c28 -20 47 -78 39 -120 -4 -20 -19 -44 -37 -59
-28 -24 -39 -26 -120 -26 l-89 0 0 110 0 110 93 0 c66 0 99 -4 114 -15z"/>
<path d="M11500 14005 l0 -445 100 0 100 0 0 145 0 145 48 0 48 0 83 -145 82
-145 110 0 c60 0 109 2 109 4 0 7 -93 172 -137 245 -41 66 -44 75 -29 83 144
80 188 287 92 423 -81 113 -149 135 -413 135 l-193 0 0 -445z m426 212 c43
-51 25 -150 -33 -176 -13 -6 -62 -11 -108 -11 l-85 0 0 108 c0 60 2 111 4 113
2 2 48 2 101 -1 91 -5 98 -7 121 -33z"/>
<path d="M12110 14390 l0 -40 50 0 50 0 0 40 0 40 -50 0 -50 0 0 -40z"/>
<path d="M8123 13783 c-29 -4 -33 -8 -33 -34 l0 -29 80 0 80 0 0 35 0 35 -47
-2 c-27 0 -63 -3 -80 -5z"/>
<path d="M6517 12750 c-4 -60 -4 -181 0 -270 l6 -160 264 0 263 0 0 270 0 270
-263 0 -264 0 -6 -110z"/>
<path d="M7090 12590 l0 -270 270 0 270 0 0 195 c0 188 1 195 20 195 12 0 20
7 20 16 0 9 -9 18 -20 21 -17 5 -20 14 -20 59 l0 54 -270 0 -270 0 0 -270z"/>
<path d="M9060 12590 l0 -270 265 0 265 0 0 270 0 270 -265 0 -265 0 0 -270z"/>
<path d="M9635 12847 c-3 -7 -4 -127 -3 -267 l3 -255 268 -3 267 -2 0 270 0
270 -265 0 c-205 0 -267 -3 -270 -13z"/>
<path d="M10215 12847 c-3 -7 -4 -127 -3 -267 l3 -255 268 -3 267 -2 0 270 0
270 -265 0 c-205 0 -267 -3 -270 -13z"/>
<path d="M13800 12650 c0 -161 -3 -210 -12 -210 -7 0 -62 -2 -123 -4 -60 -2
-167 -4 -237 -5 -78 -1 -128 -5 -128 -11 0 -6 90 -10 250 -10 l250 0 0 -45 0
-45 265 0 265 0 0 270 0 270 -265 0 -265 0 0 -210z"/>
<path d="M14375 12847 c-3 -7 -4 -127 -3 -267 l3 -255 268 -3 267 -2 0 95 0
95 395 0 395 0 0 55 0 55 -395 0 -395 0 0 120 0 120 -265 0 c-205 0 -267 -3
-270 -13z"/>
<path d="M8647 12623 c-4 -3 -7 -19 -7 -35 l0 -28 85 0 85 0 0 35 0 35 -78 0
c-43 0 -82 -3 -85 -7z"/>
<path d="M5165 12339 c-16 -25 20 -29 246 -27 200 3 234 5 234 18 0 13 -34 15
-237 18 -165 2 -239 -1 -243 -9z"/>
<path d="M5940 12015 l0 -265 133 -1 c72 0 191 -1 262 -1 l130 -1 3 266 2 267
-265 0 -265 0 0 -265z"/>
<path d="M7090 12015 l0 -265 260 0 c143 0 263 0 268 0 4 0 8 70 10 155 l3
155 149 0 c127 0 150 2 150 15 0 13 -23 15 -150 15 l-150 0 0 95 0 95 -270 0
-270 0 0 -265z"/>
<path d="M8480 12015 l0 -265 133 -1 c168 -1 390 -1 400 0 4 1 7 120 7 266 l0
265 -270 0 -270 0 0 -265z"/>
<path d="M10790 12015 l0 -265 143 -1 c118 -1 211 -1 380 1 16 0 17 19 17 265
l0 265 -270 0 -270 0 0 -265z"/>
<path d="M13220 12015 l0 -265 133 -1 c72 0 191 -1 262 -1 l130 -1 3 267 2
266 -265 0 -265 0 0 -265z"/>
<path d="M14380 12015 l0 -265 243 0 c133 0 252 -3 265 -6 l22 -6 0 271 0 271
-265 0 -265 0 0 -265z"/>
<path d="M12877 12163 c-4 -3 -7 -30 -7 -60 l0 -53 85 0 85 0 0 60 0 60 -78 0
c-43 0 -82 -3 -85 -7z"/>
<path d="M5360 11435 l0 -265 265 0 265 0 0 265 0 265 -265 0 -265 0 0 -265z"/>
<path d="M7090 11435 l0 -265 270 0 270 0 0 265 0 265 -270 0 -270 0 0 -265z"/>
<path d="M8480 11435 l0 -265 270 0 270 0 0 115 c0 108 1 115 20 115 19 0 20
-7 20 -115 l0 -115 268 0 267 0 -3 115 -3 115 125 0 c119 0 126 1 126 20 0 19
-7 20 -125 20 l-125 0 0 130 0 130 -265 0 -265 0 0 -130 c0 -123 -1 -130 -20
-130 -19 0 -20 7 -20 130 l0 130 -270 0 -270 0 0 -265z"/>
<path d="M10790 11435 l0 -265 270 0 270 0 0 265 0 265 -270 0 -270 0 0 -265z"/>
<path d="M12640 11435 l0 -265 270 0 270 0 0 265 0 265 -270 0 -270 0 0 -265z"/>
<path d="M14380 11435 l0 -265 265 0 265 0 0 165 0 165 213 2 c181 3 212 5
212 18 0 13 -31 15 -212 18 l-213 2 0 80 0 80 -265 0 -265 0 0 -265z"/>
<path d="M15395 11530 c-14 -22 12 -31 81 -28 53 2 69 6 69 18 0 12 -16 16
-72 18 -45 2 -74 -1 -78 -8z"/>
<path d="M4780 10855 l0 -265 270 0 270 0 0 265 0 265 -270 0 -270 0 0 -265z"/>
<path d="M7090 10855 l0 -265 270 0 270 0 0 265 0 265 -270 0 -270 0 0 -265z"/>
<path d="M8480 10990 l0 -130 -60 0 c-57 0 -60 -1 -60 -25 0 -24 3 -25 60 -25
l60 0 0 -110 0 -110 270 0 270 0 0 265 0 265 -270 0 -270 0 0 -130z"/>
<path d="M9640 10855 l0 -265 265 0 265 0 0 265 0 265 -265 0 -265 0 0 -265z"/>
<path d="M10790 10855 l0 -265 270 0 270 0 0 265 0 265 -270 0 -270 0 0 -265z"/>
<path d="M12060 10855 l0 -265 270 0 270 0 0 118 0 119 197 6 c108 4 234 7
280 7 76 0 83 2 83 20 0 20 -7 20 -280 20 l-280 0 0 120 0 120 -270 0 -270 0
0 -265z"/>
<path d="M14380 10855 l0 -265 265 0 265 0 0 265 0 265 -265 0 -265 0 0 -265z"/>
<path d="M4070 11070 l0 -41 53 3 52 3 0 35 0 35 -52 3 -53 3 0 -41z"/>
<path d="M4918 10542 l-138 -3 0 -194 0 -195 -220 0 -220 0 0 -55 0 -55 220 0
c189 0 220 -2 220 -15 0 -13 36 -15 265 -15 227 0 266 2 271 15 4 8 15 15 25
15 10 0 19 -7 19 -15 0 -13 36 -15 265 -15 l265 0 0 265 c0 146 -3 265 -7 266
-13 1 -342 1 -435 0 l-88 -1 0 -195 c0 -188 -1 -195 -20 -195 -19 0 -20 8 -22
196 l-3 197 -130 1 c-71 0 -192 0 -267 -2z"/>
<path d="M5940 10278 l0 -268 265 0 265 0 0 268 0 267 -265 0 -265 0 0 -267z"/>
<path d="M6519 10539 c-5 -3 -8 -115 -7 -265 l3 -259 268 -3 267 -2 0 265 0
265 -122 0 c-68 0 -185 1 -261 3 -77 1 -143 -1 -148 -4z"/>
<path d="M7094 10541 c-2 -2 -4 -123 -4 -268 l0 -263 270 0 270 0 0 265 c0
146 -3 265 -7 265 -158 3 -526 4 -529 1z"/>
<path d="M8623 10542 l-143 -3 0 -264 0 -265 268 2 267 3 0 265 0 264 -125 1
c-69 0 -189 -1 -267 -3z"/>
<path d="M10473 10542 l-253 -2 0 -265 0 -265 265 0 265 0 0 100 c0 93 1 100
20 100 19 0 20 -7 20 -100 l0 -100 268 2 267 3 3 98 3 97 139 0 c118 0 140 2
140 15 0 13 -22 15 -140 15 l-140 0 0 150 c0 83 -3 150 -7 151 -17 1 -363 1
-445 0 l-88 -1 0 -150 c0 -143 -1 -150 -20 -150 -19 0 -20 7 -20 149 0 111 -3
150 -12 152 -7 2 -127 3 -265 1z"/>
<path d="M12197 10542 l-137 -3 2 -262 3 -262 268 -3 267 -2 -2 266 -3 266
-130 2 c-71 0 -192 0 -268 -2z"/>
<path d="M12644 10541 c-2 -2 -4 -123 -4 -268 l0 -263 268 2 267 3 0 264 0
264 -263 1 c-145 0 -266 -1 -268 -3z"/>
<path d="M13224 10541 c-2 -2 -4 -123 -4 -268 l0 -263 265 0 265 0 0 268 0
267 -261 0 c-143 0 -263 -2 -265 -4z"/>
<path d="M13800 10278 l0 -268 265 0 265 0 0 268 0 267 -265 0 -265 0 0 -267z"/>
<path d="M14374 10535 c-3 -6 -3 -125 -2 -265 l3 -255 268 -3 267 -2 0 265 0
265 -162 1 c-90 0 -210 1 -267 2 -63 1 -105 -2 -107 -8z"/>
<path d="M7095 9957 c-3 -7 -4 -127 -3 -267 l3 -255 268 -3 267 -2 0 270 0
270 -265 0 c-205 0 -267 -3 -270 -13z"/>
<path d="M8480 9700 l0 -270 268 2 267 3 3 183 2 182 360 0 c353 0 360 0 360
20 0 19 -7 20 -172 20 -95 0 -257 3 -360 7 l-187 6 -3 56 -3 56 -267 3 -268 2
0 -270z"/>
<path d="M10795 9957 c-3 -7 -4 -127 -3 -267 l3 -255 265 0 265 0 0 265 0 265
-263 3 c-206 2 -264 0 -267 -11z"/>
<path d="M14378 9818 c-1 -84 -1 -206 1 -270 l3 -118 264 0 264 0 0 270 0 270
-264 0 -264 0 -4 -152z"/>
<path d="M15270 9870 l0 -40 50 0 50 0 0 40 0 40 -50 0 -50 0 0 -40z"/>
<path d="M5450 9455 c0 -13 54 -15 425 -15 371 0 425 2 425 15 0 13 -54 15
-425 15 -371 0 -425 -2 -425 -15z"/>
<path d="M7090 9325 l0 -65 -105 0 c-58 0 -105 -3 -105 -6 0 -3 17 -28 38 -55
l37 -48 68 -1 67 0 0 -144 0 -143 249 -8 c137 -4 259 -4 270 0 21 6 21 12 21
271 l0 264 -270 0 -270 0 0 -65z"/>
<path d="M9060 9125 l0 -265 88 -1 c48 0 167 -2 265 -5 l177 -5 0 270 0 271
-265 0 -265 0 0 -265z"/>
<path d="M9632 9123 l3 -268 268 -3 267 -2 0 270 0 270 -270 0 -270 0 2 -267z"/>
<path d="M10212 9123 l3 -268 245 -2 c135 -2 255 -1 268 2 l22 5 0 265 0 265
-270 0 -270 0 2 -267z"/>
<path d="M14380 9127 l0 -264 197 -6 c108 -4 227 -7 265 -7 l68 0 0 65 0 65
385 0 c378 0 385 0 385 20 0 20 -7 20 -385 20 l-385 0 0 185 0 185 -265 0
-265 0 0 -263z"/>
<path d="M11240 9285 l0 -25 185 0 185 0 0 25 0 25 -185 0 -185 0 0 -25z"/>
<path d="M11740 9285 c0 -25 0 -25 95 -25 95 0 95 0 95 25 0 25 0 25 -95 25
-95 0 -95 0 -95 -25z"/>
<path d="M15010 9145 l0 -36 83 3 82 3 3 33 3 32 -85 0 -86 0 0 -35z"/>
<path d="M7943 8973 c-7 -2 -13 -16 -13 -30 0 -20 4 -24 23 -21 16 2 22 10 22
27 0 25 -11 33 -32 24z"/>
<path d="M6656 8059 c-177 -26 -337 -179 -375 -357 -66 -314 171 -578 504
-559 196 11 331 111 385 284 27 87 28 223 3 224 -22 1 -225 1 -345 0 l-88 -1
0 -85 0 -85 88 -2 c83 -2 128 -4 145 -7 18 -3 -30 -64 -71 -91 -94 -62 -265
-46 -351 33 -61 57 -88 182 -59 279 16 53 82 126 136 149 68 29 174 26 241 -7
28 -15 59 -37 67 -49 l15 -24 68 37 c37 20 78 44 90 52 l23 16 -50 55 c-50 55
-132 106 -202 127 -53 16 -158 21 -224 11z"/>
<path d="M9150 8030 l0 -40 50 0 50 0 0 40 0 40 -50 0 -50 0 0 -40z"/>
<path d="M9505 8063 c-142 -20 -252 -87 -330 -202 -154 -227 -78 -538 162
-664 194 -100 413 -68 557 83 91 96 127 187 127 323 0 126 -37 226 -114 314
-41 47 -135 108 -195 127 -51 16 -159 26 -207 19z m150 -214 c62 -17 129 -90
150 -163 33 -113 -5 -238 -91 -299 -124 -87 -316 -43 -378 87 -69 144 -25 293
103 359 60 30 142 36 216 16z"/>
<path d="M12080 8059 c-173 -29 -319 -166 -365 -340 -54 -202 45 -433 224
-524 136 -68 297 -73 426 -12 284 135 352 512 134 742 -49 52 -132 103 -199
123 -54 16 -159 21 -220 11z m207 -224 c93 -47 139 -137 131 -254 -5 -71 -25
-119 -67 -164 -85 -92 -253 -100 -355 -16 -102 85 -117 262 -31 375 63 82 218
111 322 59z"/>
<path d="M4820 7616 l0 -436 -66 0 c-57 0 -65 -2 -62 -17 3 -17 36 -18 523
-18 487 0 520 1 523 18 3 14 -4 17 -47 17 -28 0 -51 3 -51 8 0 4 6 27 14 52
l13 45 169 0 168 0 20 -61 19 -62 106 -4 c58 -3 109 -2 113 1 3 3 -62 205
-144 449 l-150 442 -132 0 -132 0 -36 -107 c-20 -60 -82 -243 -137 -408 -56
-165 -106 -312 -112 -327 l-11 -28 -189 0 -189 0 0 125 0 125 58 0 c149 0 238
33 310 115 128 146 79 386 -96 472 -56 28 -60 28 -269 31 l-213 3 0 -435z
m408 212 c33 -37 44 -74 32 -118 -16 -61 -52 -80 -149 -80 l-81 0 0 110 0 110
88 0 c79 0 91 -2 110 -22z m660 -185 l50 -153 -99 0 c-61 0 -99 4 -99 10 0 13
93 301 96 297 1 -1 24 -71 52 -154z"/>
<path d="M7300 7605 l0 -445 88 -1 c48 0 174 -1 279 -2 l193 -2 0 102 0 102
-92 0 c-51 0 -130 0 -175 1 l-83 0 0 75 0 75 160 0 161 0 -3 98 c-2 77 -6 97
-18 98 -8 1 -79 2 -157 3 l-143 1 0 70 0 70 175 0 175 0 0 100 0 100 -280 0
-280 0 0 -445z"/>
<path d="M8290 7606 l0 -445 90 -3 c50 -2 95 -1 100 0 6 2 10 95 10 240 l0
236 28 -40 c16 -21 93 -128 171 -236 l143 -198 79 0 79 0 0 445 0 445 -105 0
-105 0 -2 -235 -3 -235 -165 233 -166 232 -77 3 -77 3 0 -445z"/>
<path d="M10020 8041 c0 -6 -19 -11 -42 -13 -35 -2 -43 -7 -43 -23 0 -17 6
-20 43 -18 l42 2 0 -70 0 -69 115 0 115 0 0 -344 0 -344 93 -4 c50 -2 95 -3
100 -1 4 3 7 159 7 349 l0 344 115 0 115 0 0 65 0 65 75 0 c73 0 75 1 75 25 0
24 -2 25 -75 25 -43 0 -75 4 -75 10 0 6 -117 10 -330 10 -200 0 -330 -4 -330
-9z"/>
<path d="M11080 7603 l0 -448 103 0 102 0 3 162 2 163 163 2 162 3 3 98 3 97
-166 0 -165 0 0 85 0 85 165 0 165 0 0 100 0 100 -270 0 -270 0 0 -447z"/>
<path d="M12720 7725 c0 -306 1 -328 21 -382 15 -41 37 -73 74 -109 71 -70
128 -89 265 -89 95 0 111 3 162 28 32 16 75 48 97 73 68 78 71 95 71 471 l0
333 -100 0 -100 0 -1 -302 c0 -207 -4 -314 -12 -338 -30 -87 -208 -95 -251
-11 -14 25 -16 78 -16 341 l0 310 -105 0 -105 0 0 -325z"/>
<path d="M13550 7605 l0 -445 85 -2 c47 -1 93 -2 103 -2 16 -1 17 18 22 234
l5 235 83 -115 c45 -63 119 -168 165 -232 l82 -118 80 3 80 2 3 443 2 442
-105 0 -105 0 -2 -237 -3 -237 -166 235 -166 234 -82 3 -81 3 0 -446z"/>
<path d="M14400 7603 l0 -448 213 1 c217 1 298 12 351 50 13 9 46 14 88 14 61
0 68 2 68 20 0 16 -7 20 -36 20 l-36 0 30 35 c76 86 112 186 112 312 0 209
-124 378 -315 427 -44 12 -111 16 -267 16 l-208 0 0 -447z m441 235 c95 -32
152 -122 151 -239 0 -104 -42 -177 -124 -220 -30 -15 -59 -19 -148 -19 l-110
0 0 245 0 245 99 0 c54 0 113 -5 132 -12z"/>
<path d="M4440 7870 l0 -60 85 0 85 0 0 60 0 60 -85 0 -85 0 0 -60z"/>
<path d="M5060 7305 l0 -35 69 0 c88 0 101 5 101 41 l0 29 -85 0 -85 0 0 -35z"/>
<path d="M15172 7248 c3 -9 31 -14 81 -16 64 -2 77 0 77 13 0 12 -15 15 -81
15 -60 0 -80 -3 -77 -12z"/>
<path d="M10564 1525 c-4 -9 -2 -21 5 -28 20 -20 12 -35 -24 -41 -19 -4 -37
-11 -41 -17 -13 -22 13 -27 66 -13 30 8 69 11 86 8 19 -3 35 -1 39 6 10 16 2
21 -44 27 -38 5 -41 7 -38 37 2 25 -2 32 -21 34 -13 2 -25 -3 -28 -13z"/>
<path d="M10787 1406 c-3 -8 9 -26 26 -42 18 -16 42 -42 53 -58 28 -39 50 -27
28 15 -14 28 -14 31 7 48 23 19 19 41 -8 41 -9 0 -22 -8 -28 -17 -12 -16 -15
-16 -32 -2 -30 26 -41 30 -46 15z"/>
<path d="M10552 1391 c-100 -35 -166 -126 -160 -223 3 -51 5 -54 38 -65 43
-15 219 -16 280 -2 25 6 71 22 103 36 53 24 57 28 57 60 0 65 -58 150 -123
181 -67 31 -132 36 -195 13z m47 -127 c12 -15 21 -34 21 -44 0 -34 -39 -70
-75 -70 -36 0 -75 36 -75 70 0 34 39 70 75 70 24 0 39 -7 54 -26z m171 6 c11
-11 20 -27 20 -35 0 -19 -36 -55 -55 -55 -18 0 -55 35 -55 53 0 22 31 57 51
57 10 0 28 -9 39 -20z"/>
<path d="M11135 1386 c-19 -19 -25 -35 -25 -71 0 -43 -1 -45 -30 -45 -28 0
-30 -3 -30 -34 0 -30 3 -35 28 -38 l27 -3 3 -107 3 -108 34 0 34 0 3 108 3
107 43 3 c41 3 42 4 42 38 0 34 0 34 -45 34 -37 0 -45 3 -45 18 0 35 24 55 59
50 31 -5 32 -4 29 31 -3 36 -3 36 -55 39 -45 3 -56 -1 -78 -22z"/>
<path d="M12446 1394 c-32 -31 -8 -84 38 -84 30 0 46 18 46 52 0 43 -53 64
-84 32z"/>
<path d="M12570 1195 l0 -215 40 0 40 0 0 57 0 57 51 -57 c49 -55 52 -57 101
-57 l50 0 -68 76 -67 75 69 70 68 69 -46 0 c-43 0 -52 -5 -100 -49 l-53 -49
-3 119 -3 119 -39 0 -40 0 0 -215z"/>
<path d="M7380 1305 c0 -36 -2 -65 -5 -65 -3 0 -17 7 -31 16 -17 12 -38 15
-72 11 -57 -6 -98 -48 -108 -112 -18 -126 77 -216 177 -167 30 15 39 16 39 6
0 -8 10 -14 25 -14 l25 0 0 195 0 195 -25 0 c-24 0 -25 -2 -25 -65z m-29 -90
c30 -16 30 -16 27 -93 l-3 -77 -37 -18 c-33 -16 -40 -16 -71 -4 -42 18 -62 61
-54 120 10 74 71 106 138 72z"/>
<path d="M9340 1299 l0 -70 -26 20 c-61 48 -158 13 -185 -66 -15 -47 -5 -126
21 -163 35 -49 110 -59 168 -22 20 13 22 13 22 -2 0 -10 9 -16 25 -16 l25 0 0
195 0 195 -25 0 c-24 0 -25 -2 -25 -71z m-26 -90 c25 -20 27 -25 24 -93 -3
-71 -3 -71 -40 -89 -33 -16 -40 -17 -72 -3 -41 17 -56 47 -56 107 0 81 84 126
144 78z"/>
<path d="M9600 1175 c0 -188 1 -195 20 -195 12 0 20 7 20 16 0 15 3 14 27 -2
35 -22 104 -22 138 0 51 34 72 143 40 206 -36 69 -123 93 -179 49 l-26 -20 0
70 c0 64 -2 71 -20 71 -19 0 -20 -7 -20 -195z m173 40 c47 -35 51 -135 8 -179
-25 -25 -79 -26 -115 -3 -24 16 -26 23 -26 87 0 62 2 70 26 89 31 24 80 27
107 6z"/>
<path d="M10382 1343 c-15 -19 -25 -24 -28 -15 -3 6 -17 12 -30 12 -33 0 -31
-28 2 -40 14 -6 24 -16 21 -23 -18 -49 -18 -57 1 -57 13 0 21 9 25 28 3 15 17
44 31 65 24 35 27 57 7 57 -4 0 -17 -12 -29 -27z"/>
<path d="M8070 1336 c0 -29 22 -39 46 -22 24 18 11 46 -21 46 -20 0 -25 -5
-25 -24z"/>
<path d="M7553 1250 c-43 -26 -63 -68 -63 -132 0 -76 31 -118 103 -138 59 -17
169 22 141 50 -7 7 -21 6 -49 -6 -65 -27 -130 1 -150 64 -6 22 -6 22 109 22
l116 0 0 25 c0 105 -118 170 -207 115z m135 -44 c11 -11 22 -30 24 -41 3 -19
-3 -20 -90 -23 -93 -3 -94 -3 -87 20 22 72 106 96 153 44z"/>
<path d="M7838 1254 c-32 -17 -45 -55 -32 -93 8 -21 23 -31 84 -51 63 -21 76
-29 78 -49 7 -50 -55 -66 -121 -32 -35 18 -38 18 -47 2 -7 -14 -3 -21 18 -33
72 -41 163 -28 189 27 30 63 -8 107 -114 129 -43 10 -58 29 -43 55 15 29 76
32 116 6 16 -10 24 -11 33 -2 18 18 13 27 -24 43 -44 18 -102 17 -137 -2z"/>
<path d="M8238 1254 c-39 -21 -58 -64 -58 -131 0 -95 42 -143 123 -143 18 0
47 9 66 21 l34 20 -6 -37 c-12 -73 -75 -102 -146 -67 -38 19 -61 15 -61 -9 0
-18 63 -38 121 -38 56 0 64 3 95 34 l34 34 0 161 c0 152 -1 161 -19 161 -11 0
-21 -5 -23 -11 -3 -8 -14 -7 -35 5 -39 20 -89 20 -125 0z m137 -49 c21 -20 25
-34 25 -80 0 -46 -4 -60 -25 -80 -66 -67 -169 3 -150 101 14 79 98 112 150 59z"/>
<path d="M8610 1263 c-8 -3 -23 -12 -32 -21 -16 -14 -18 -13 -18 1 0 11 -8 17
-25 17 l-25 0 0 -140 0 -140 25 0 25 0 0 104 c0 101 1 105 26 125 29 23 64 27
95 11 17 -10 19 -22 19 -125 l0 -115 25 0 25 0 0 120 c0 115 -1 122 -25 145
-24 25 -76 32 -115 18z"/>
<path d="M8873 1250 c-43 -26 -63 -68 -63 -132 0 -76 31 -118 103 -138 59 -17
169 22 141 50 -7 7 -21 6 -49 -6 -65 -27 -130 1 -150 64 -6 22 -6 22 109 22
l116 0 0 25 c0 105 -118 170 -207 115z m135 -44 c11 -11 22 -30 24 -41 3 -19
-3 -20 -90 -23 -93 -3 -94 -3 -87 20 22 72 106 96 153 44z"/>
<path d="M11300 1125 l0 -145 40 0 40 0 0 90 c0 77 3 93 20 110 11 11 30 20
43 20 20 0 57 42 57 64 0 10 -80 7 -100 -4 -13 -7 -21 -7 -25 0 -3 5 -22 10
-41 10 l-34 0 0 -145z"/>
<path d="M11547 1252 c-41 -25 -71 -93 -64 -149 2 -25 13 -57 24 -72 41 -56
127 -76 197 -47 45 19 53 34 28 59 -18 18 -25 19 -47 9 -53 -24 -115 -6 -115
34 0 11 20 14 101 14 l102 0 -7 42 c-9 53 -38 101 -71 116 -38 17 -116 14
-148 -6z m121 -69 l27 -28 -32 -3 c-18 -2 -50 -2 -70 0 l-38 3 27 28 c15 15
34 27 43 27 9 0 28 -12 43 -27z"/>
<path d="M11853 1250 c-47 -29 -66 -72 -61 -141 3 -45 10 -65 29 -85 50 -55
123 -68 197 -34 l43 20 -18 25 c-13 18 -24 23 -38 19 -56 -17 -93 -16 -114 5
-12 12 -21 26 -21 31 0 6 40 10 100 10 l100 0 0 35 c0 44 -21 86 -56 114 -36
28 -116 29 -161 1z m125 -68 c21 -27 14 -32 -48 -32 -33 0 -60 4 -60 9 0 5 12
19 27 30 28 23 59 20 81 -7z"/>
<path d="M12110 1065 l0 -205 35 0 35 0 0 70 0 71 32 -17 c37 -19 96 -14 134
11 14 9 35 37 46 62 29 66 18 125 -32 175 -33 34 -43 38 -87 38 -28 0 -58 -7
-71 -16 -20 -14 -22 -14 -22 0 0 12 -10 16 -35 16 l-35 0 0 -205z m191 116
c54 -44 6 -152 -60 -136 -36 9 -51 26 -57 66 -12 71 62 115 117 70z"/>
<path d="M12447 1263 c-4 -3 -7 -69 -7 -145 l0 -138 40 0 40 0 0 145 0 145
-33 0 c-19 0 -37 -3 -40 -7z"/>
<path d="M8070 1120 l0 -140 25 0 25 0 0 140 0 140 -25 0 -25 0 0 -140z"/>
<path d="M9880 1255 c0 -3 25 -66 57 -141 56 -135 56 -135 40 -170 -12 -25
-23 -34 -41 -34 -20 0 -36 -16 -36 -36 0 -2 17 -4 38 -4 59 0 54 -8 180 293
l41 98 -26 -3 c-24 -3 -32 -14 -68 -105 -22 -56 -43 -104 -45 -107 -3 -2 -25
45 -49 105 -39 95 -48 109 -68 109 -13 0 -23 -2 -23 -5z"/>
<path d="M10825 1110 c-76 -36 -179 -53 -295 -48 -118 5 -123 1 -68 -48 47
-44 90 -59 168 -59 64 0 82 4 122 28 50 29 90 74 107 120 6 15 9 27 8 26 -1 0
-20 -9 -42 -19z"/>
</g>
</svg>
